<svg id="Camada_1" data-name="Camada 1" xmlns="http://www.w3.org/2000/svg" viewBox="0 0 826.99 469.92"><defs><style>.cls-1,.cls-3{fill:none;}.cls-2{fill:#105bc1;}.cls-3{stroke:#000;stroke-miterlimit:10;}</style></defs><title>Logo</title><path class="cls-1" d="M990.48,775.4H963.12c0-8-.12-16-.11-24a5.78,5.78,0,0,1,.84-2.46,14,14,0,0,1,10.48-7.89c3-.55,3.25-1,2.25-4.32-6.69-.65-10.27,3.8-13.58,8.68-.28-.38-.44-.5-.44-.63,0-1.59-.06-3.19-.06-4.79,0-3.69-.34-3.95-4.18-2.89V775.4H946.8c-.06-.95-.16-1.9-.16-2.86q0-16.53,0-33.06V737c-4.33-.65-4.65-.52-4.65,2q0,18.21,0,36.42h-6.72q-10.62-25.26-21.2-50.52c-.58-1.38-1.11-2.18-2.85-2.18s-2.36.7-2.94,2.09c-3.16,7.67-6.4,15.3-9.59,23Q893,761.57,887.28,775.4H546.48V305.48H767.76c-13.51,3.4-19.52,15.41-28.48,24.28L859.53,466c-1.24.47-2,.77-2.7,1l-48.68,15.82L668.27,528.37c-16.83,5.48-33.66,11-50.53,16.36-2.2.7-2,2.09-2,3.68,0,1.87,1.42,1.58,2.55,1.72,6.81.84,13.62,1.63,20.42,2.5,15.58,2,31.14,4.23,46.74,6,14.58,1.71,29.2,3.07,43.8,4.49a357.75,357.75,0,0,0,43.79,1.91c10.33-.26,20.56-1.32,30.5-4.23q20.9-6.12,41.72-12.48,76.11-23.1,152.19-46.26,45.66-14,91.21-28.17,62.14-19.32,124.26-38.74,42.46-13.31,84.86-26.85c8.73-2.78,17.57-5.25,25.7-9.71,16.18-8.88,29.74-21,42.31-34.27a25.79,25.79,0,0,0,6.74-11.73c1.31-5.5.17-10.27-4.27-14.05a20.9,20.9,0,0,0-11.22-5c-10.93-1.23-21.89-2.38-32.87-2.9-13.2-.63-26.42.1-39.18,3.72-25.69,7.3-51.35,14.74-76.88,22.57-48.8,15-97.48,30.28-146.23,45.37a45.43,45.43,0,0,1-29.83-.91c-23.2-8.59-46.43-17.09-69.6-25.73q-50.81-18.95-101.54-38c-24.58-9.21-49.13-18.51-73.76-27.59-5.2-1.92-10.69-3-16-4.55h602.35V775.4H1002c2-1,4.11-1.82,5.81-3.18,5.69-4.56,4.64-12.59-2-15.57a42.33,42.33,0,0,0-5.19-1.78c-3.66-1.1-7.41-1.94-11-3.27-2.85-1.06-3.72-3.58-2.82-6.48,1-3.18,4-5.16,8-5.39A17.78,17.78,0,0,1,1008,744.1l2.16-2.58a24,24,0,0,0-2.47-2.08,20.41,20.41,0,0,0-18.58-1.87c-4.54,1.67-6.76,5.17-7.09,9.89-.26,3.67,1.63,6.32,5.87,7.73,4.68,1.56,9.5,2.68,14.21,4.17,2.66.84,4.77,2.49,4.72,5.62a6.07,6.07,0,0,1-4.76,6.18c-2.88.69-6.09,1.24-8.91.67-3.73-.74-7.23-2.63-11.12-4.14l-1.7,2.6a36.61,36.61,0,0,0,3.6,2.3C986.09,773.62,988.3,774.47,990.48,775.4ZM682,504.17l-8.19-3.75q-38-17.32-76-34.67c-7.11-3.25-14-7-21.26-9.9-7.61-3.08-15.32-3.16-21.69,2.95-2.88,2.77-5,6.35-7.32,9.68a2.63,2.63,0,0,0,.36,2.43c15.85,17.45,31.7,34.91,47.72,52.2,4,4.28,8.84,6.12,14.95,4,10.72-3.63,21.61-6.76,32.39-10.22C655.73,512.82,668.51,508.58,682,504.17Zm153,148.4v2.82c0,7.91.09,15.82,0,23.73a48,48,0,0,1-1,9c-1.67,8-7.48,12.92-15.19,13.09-8.64.2-14.41-3.93-16.53-12.23a44.22,44.22,0,0,1-1.27-9.93c-.18-8-.06-16-.06-24v-2.39h-5.13c0,10.09-.06,20,0,29.89a28.69,28.69,0,0,0,1,6.61c3.09,12.32,12.17,18.12,25.28,16.35,8.16-1.09,13.57-5.87,16.1-13.55a40.19,40.19,0,0,0,1.95-11.25c.28-8.71.09-17.42.08-26.14,0-.68-.08-1.36-.13-2Zm147.67,43.78c-3.33-1.63-3.61-1.59-5.85,1a13.9,13.9,0,0,1-15.57,3.52c-5.14-2.21-9-8.09-8.6-13.32h32.51c1.75-9-4.88-18.85-14-21.06a19.39,19.39,0,0,0-23.54,13.38c-3.12,10.25,2.28,21.42,12,24.9C968.66,708,979.48,704,982.63,696.35Zm104.09,8.71a41.67,41.67,0,0,0-.6-4.47c-.26-1.12-1.23-2.15-1.26-3.23-.13-5.28,0-10.55-.06-15.83,0-6.48-2.15-11.94-8.64-14.38-7.86-2.94-15-.69-21.72,4l1.58,2.73c3.41-1.3,6.49-2.93,9.77-3.64,9.11-2,15,3.92,13.65,13.38-.77-.23-1.52-.48-2.28-.68-6-1.51-12-2-17.85.49-5.25,2.19-7.77,6.19-7.41,11.37a11.67,11.67,0,0,0,9.1,10.48c6.79,1.58,12.78-.23,17.9-4.95.35-.32.73-.62,1.22-1C1080.59,704.7,1081.69,705.7,1086.72,705.06Zm-230.64.12c0-6.76.18-13.31-.05-19.85s3.06-10.58,8.36-13.32c7.59-3.93,13.34-.7,13.75,7.84.36,7.5.19,15,.25,22.54,0,.93,0,1.86,0,2.75h5c0-9,.35-17.94-.08-26.79-.51-10.49-7.4-14.8-17.41-11.46-4.13,1.38-7.34,4-10.34,8v-8.32H851v38.57Zm162-8.52c-.3.38-.57.67-.79,1-1.84,2.58-1.84,2.58.78,4.31a23.79,23.79,0,0,0,11.7,3.8c4.86.32,9.63,0,13.64-3.28,5.82-4.71,4.81-13.14-2-16.2a35.25,35.25,0,0,0-4.74-1.61c-3.53-1-7.1-1.85-10.6-2.95-1.86-.59-3.45-1.68-3.64-4-.2-2.5.39-4.8,2.62-6a15.27,15.27,0,0,1,5.84-1.79,16.12,16.12,0,0,1,12.7,4.49l2.46-3c-5.06-5-11.13-6.14-17.75-5.21a13,13,0,0,0-8.22,4c-4.91,5.41-3.25,12.74,3.52,15.25,2.31.86,4.74,1.37,7.11,2.07a60.91,60.91,0,0,1,8,2.48,5.43,5.43,0,0,1,.52,9.9,15.89,15.89,0,0,1-6.55,1.87C1027.13,702.27,1022.38,700.07,1018.05,696.66Zm-93.58,3.7c-.54-1.31-.88-2.1-1.19-2.91-3.8-9.73-7.62-19.46-11.36-29.22-.5-1.3-1.08-2-2.56-1.81a30.34,30.34,0,0,1-3.31,0,3.49,3.49,0,0,0,.08.95c4.93,12.2,9.9,24.39,14.81,36.6.94,2.34,2.85,1,4.31,1.31,1.29.29,2-.28,2.46-1.56,3.29-8.31,6.69-16.57,10-24.85,1.64-4,3.27-8.09,4.93-12.19-4.79-.69-4.82-.67-6.36,3.26Zm185.19.29c-.49.05-.73.05-1,.1-5.89,1.33-7.58,0-7.58-6.1q0-20.39,0-40.76v-2.67H1096v2.47q0,22.42,0,44.84c0,3.63,1.45,6,4.48,6.84,3.39,1,6.71.39,10.06-.83C1110.23,703.14,1110,702,1109.66,700.65Zm-116.59,4.51h5.09V684.43a12.85,12.85,0,0,1,9.3-12.68c1.57-.49,3.24-.69,4.82-1v-4.17c-7-1-10.76,3.37-14.68,8v-7.9h-4.53ZM894.26,666.5v38.67h4.86V666.5Zm-.06-8.35h4.93v-6.94H894.2Zm52.31,62.78c-1.74.46-4,.53-4.25,1.23a9.42,9.42,0,0,0,.16,5.56c.19.57,2.63.38,4.09.53Z" transform="translate(-546.48 -305.48)"/><path class="cls-2" d="M771.12,305.48c5.36,1.5,10.85,2.63,16,4.55,24.63,9.08,49.18,18.38,73.76,27.59q50.76,19,101.54,38c23.17,8.64,46.4,17.14,69.6,25.73a45.43,45.43,0,0,0,29.83.91c48.75-15.09,97.43-30.4,146.23-45.37,25.53-7.83,51.19-15.27,76.88-22.57,12.76-3.62,26-4.35,39.18-3.72,11,.52,21.94,1.67,32.87,2.9a20.9,20.9,0,0,1,11.22,5c4.44,3.78,5.58,8.55,4.27,14.05a25.79,25.79,0,0,1-6.74,11.73c-12.57,13.3-26.13,25.39-42.31,34.27-8.13,4.46-17,6.93-25.7,9.71q-42.4,13.5-84.86,26.85-62.1,19.46-124.26,38.74-45.57,14.16-91.21,28.17-76.07,23.22-152.19,46.26-20.84,6.33-41.72,12.48c-9.94,2.91-20.17,4-30.5,4.23a357.75,357.75,0,0,1-43.79-1.91c-14.6-1.42-29.22-2.78-43.8-4.49-15.6-1.82-31.16-4-46.74-6-6.8-.87-13.61-1.66-20.42-2.5-1.13-.14-2.55.15-2.55-1.72,0-1.59-.22-3,2-3.68,16.87-5.37,33.7-10.88,50.53-16.36l139.88-45.58L856.83,467c.74-.24,1.46-.54,2.7-1L739.28,329.76c9-8.87,15-20.88,28.48-24.28Z" transform="translate(-546.48 -305.48)"/><path class="cls-2" d="M887.28,775.4q5.72-13.83,11.42-27.65c3.19-7.66,6.43-15.29,9.59-23,.58-1.39,1.23-2.1,2.94-2.09s2.27.8,2.85,2.18q10.56,25.27,21.2,50.52H930c-2.07-4.93-4.17-9.85-6.19-14.8a2.29,2.29,0,0,0-2.45-1.72c-6.8.07-13.6,0-20.4.08-.74,0-1.91.41-2.14.95-2.18,5.13-4.2,10.32-6.26,15.49ZM911.53,729l-.68.05-10.67,25.69H922C918.41,746,915,737.53,911.53,729Z" transform="translate(-546.48 -305.48)"/><path class="cls-1" d="M892.56,775.4c2.06-5.17,4.08-10.36,6.26-15.49.23-.54,1.4-.95,2.14-.95,6.8-.08,13.6,0,20.4-.08a2.29,2.29,0,0,1,2.45,1.72c2,4.95,4.12,9.87,6.19,14.8Z" transform="translate(-546.48 -305.48)"/><path class="cls-2" d="M990.48,775.4c-2.18-.93-4.39-1.78-6.52-2.81a36.61,36.61,0,0,1-3.6-2.3l1.7-2.6c3.89,1.51,7.39,3.4,11.12,4.14,2.82.57,6,0,8.91-.67a6.07,6.07,0,0,0,4.76-6.18c0-3.13-2.06-4.78-4.72-5.62-4.71-1.49-9.53-2.61-14.21-4.17-4.24-1.41-6.13-4.06-5.87-7.73.33-4.72,2.55-8.22,7.09-9.89a20.41,20.41,0,0,1,18.58,1.87,24,24,0,0,1,2.47,2.08L1008,744.1a17.78,17.78,0,0,0-13.18-4.37c-4,.23-7,2.21-8,5.39-.9,2.9,0,5.42,2.82,6.48,3.56,1.33,7.31,2.17,11,3.27a42.33,42.33,0,0,1,5.19,1.78c6.6,3,7.65,11,2,15.57-1.7,1.36-3.86,2.14-5.81,3.18Z" transform="translate(-546.48 -305.48)"/><path class="cls-2" d="M958.32,775.4V737.14c3.84-1.06,4.18-.8,4.18,2.89,0,1.6,0,3.2.06,4.79,0,.13.16.25.44.63,3.31-4.88,6.89-9.33,13.58-8.68,1,3.28.77,3.77-2.25,4.32A14,14,0,0,0,963.85,749a5.78,5.78,0,0,0-.84,2.46c0,8,.06,16,.11,24Z" transform="translate(-546.48 -305.48)"/><path class="cls-2" d="M942,775.4q0-18.21,0-36.42c0-2.54.32-2.67,4.65-2v2.52q0,16.53,0,33.06c0,1,.1,1.91.16,2.86Z" transform="translate(-546.48 -305.48)"/><path class="cls-2" d="M682,504.17c-13.49,4.41-26.27,8.65-39.08,12.77-10.78,3.46-21.67,6.59-32.39,10.22-6.11,2.07-11,.23-14.95-4-16-17.29-31.87-34.75-47.72-52.2a2.63,2.63,0,0,1-.36-2.43c2.31-3.33,4.44-6.91,7.32-9.68,6.37-6.11,14.08-6,21.69-2.95,7.23,2.94,14.15,6.65,21.26,9.9q38,17.38,76,34.67Z" transform="translate(-546.48 -305.48)"/><path d="M835,652.57h5.14c0,.69.13,1.37.13,2,0,8.72.2,17.43-.08,26.14A40.19,40.19,0,0,1,838.2,692c-2.53,7.68-7.94,12.46-16.1,13.55-13.11,1.77-22.19-4-25.28-16.35a28.69,28.69,0,0,1-1-6.61c-.11-9.9,0-19.8,0-29.89h5.13v2.39c0,8-.12,16,.06,24a44.22,44.22,0,0,0,1.27,9.93c2.12,8.3,7.89,12.43,16.53,12.23,7.71-.17,13.52-5.06,15.19-13.09a48,48,0,0,0,1-9c.13-7.91,0-15.82,0-23.73Z" transform="translate(-546.48 -305.48)"/><path d="M982.63,696.35c-3.15,7.68-14,11.63-23,8.4-9.74-3.48-15.14-14.65-12-24.9a19.39,19.39,0,0,1,23.54-13.38c9.1,2.21,15.73,12.08,14,21.06H952.61c-.4,5.23,3.46,11.11,8.6,13.32a13.9,13.9,0,0,0,15.57-3.52C979,694.76,979.3,694.72,982.63,696.35Zm-2.27-12.73a14.21,14.21,0,0,0-13.77-13.74c-7.84-.11-13.86,5.6-14.38,13.74Z" transform="translate(-546.48 -305.48)"/><path d="M1086.72,705.06c-5,.64-6.13-.36-6.6-5.75-.49.41-.87.71-1.22,1-5.12,4.72-11.11,6.53-17.9,4.95a11.67,11.67,0,0,1-9.1-10.48c-.36-5.18,2.16-9.18,7.41-11.37,5.86-2.46,11.86-2,17.85-.49.76.2,1.51.45,2.28.68,1.39-9.46-4.54-15.36-13.65-13.38-3.28.71-6.36,2.34-9.77,3.64l-1.58-2.73c6.76-4.7,13.86-6.95,21.72-4,6.49,2.44,8.6,7.9,8.64,14.38,0,5.28-.07,10.55.06,15.83,0,1.08,1,2.11,1.26,3.23A41.67,41.67,0,0,1,1086.72,705.06Zm-7-14.18c0-3.72,0-3.77-3.49-4.66-4.89-1.24-9.8-1.7-14.56.47-5.71,2.59-6.59,9.67-1.42,13.13a13.55,13.55,0,0,0,7.18,2C1074.59,701.77,1079.69,697,1079.68,690.88Z" transform="translate(-546.48 -305.48)"/><path d="M856.08,705.18H851V666.61h4.57v8.32c3-4,6.21-6.66,10.34-8,10-3.34,16.9,1,17.41,11.46.43,8.85.08,17.74.08,26.79h-5c0-.89,0-1.82,0-2.75-.06-7.51.11-15-.25-22.54-.41-8.54-6.16-11.77-13.75-7.84-5.3,2.74-8.58,6.86-8.36,13.32S856.08,698.42,856.08,705.18Z" transform="translate(-546.48 -305.48)"/><path d="M1018.05,696.66c4.33,3.41,9.08,5.61,14.61,5.15a15.89,15.89,0,0,0,6.55-1.87,5.43,5.43,0,0,0-.52-9.9,60.91,60.91,0,0,0-8-2.48c-2.37-.7-4.8-1.21-7.11-2.07-6.77-2.51-8.43-9.84-3.52-15.25a13,13,0,0,1,8.22-4c6.62-.93,12.69.2,17.75,5.21l-2.46,3a16.12,16.12,0,0,0-12.7-4.49,15.27,15.27,0,0,0-5.84,1.79c-2.23,1.21-2.82,3.51-2.62,6,.19,2.29,1.78,3.38,3.64,4,3.5,1.1,7.07,1.94,10.6,2.95a35.25,35.25,0,0,1,4.74,1.61c6.77,3.06,7.78,11.49,2,16.2-4,3.24-8.78,3.6-13.64,3.28A23.79,23.79,0,0,1,1018,702c-2.62-1.73-2.62-1.73-.78-4.31C1017.48,697.33,1017.75,697,1018.05,696.66Z" transform="translate(-546.48 -305.48)"/><path d="M924.47,700.36,936.32,670c1.54-3.93,1.57-4,6.36-3.26-1.66,4.1-3.29,8.15-4.93,12.19-3.35,8.28-6.75,16.54-10,24.85-.51,1.28-1.17,1.85-2.46,1.56-1.46-.33-3.37,1-4.31-1.31-4.91-12.21-9.88-24.4-14.81-36.6a3.49,3.49,0,0,1-.08-.95,30.34,30.34,0,0,0,3.31,0c1.48-.18,2.06.51,2.56,1.81,3.74,9.76,7.56,19.49,11.36,29.22C923.59,698.26,923.93,699.05,924.47,700.36Z" transform="translate(-546.48 -305.48)"/><path d="M1109.66,700.65c.3,1.34.57,2.49.89,3.89-3.35,1.22-6.67,1.83-10.06.83-3-.89-4.47-3.21-4.48-6.84q0-22.42,0-44.84v-2.47h5.12v2.67q0,20.39,0,40.76c0,6.07,1.69,7.43,7.58,6.1C1108.93,700.7,1109.17,700.7,1109.66,700.65Z" transform="translate(-546.48 -305.48)"/><path d="M993.07,705.16V666.61h4.53v7.9c3.92-4.58,7.69-9,14.68-8v4.17c-1.58.33-3.25.53-4.82,1a12.85,12.85,0,0,0-9.3,12.68v20.73Z" transform="translate(-546.48 -305.48)"/><path d="M894.26,666.5h4.86v38.67h-4.86Z" transform="translate(-546.48 -305.48)"/><path d="M894.2,658.15v-6.94h4.93v6.94Z" transform="translate(-546.48 -305.48)"/><path class="cls-2" d="M946.51,720.93v7.32c-1.46-.15-3.9,0-4.09-.53a9.42,9.42,0,0,1-.16-5.56C942.47,721.46,944.77,721.39,946.51,720.93Z" transform="translate(-546.48 -305.48)"/><path class="cls-1" d="M911.53,729c3.44,8.49,6.88,17,10.42,25.74H900.18l10.67-25.69Z" transform="translate(-546.48 -305.48)"/><path class="cls-3" d="M980.36,683.62H952.21c.52-8.14,6.54-13.85,14.38-13.74A14.21,14.21,0,0,1,980.36,683.62Z" transform="translate(-546.48 -305.48)"/><path class="cls-3" d="M1079.68,690.88c0,6.14-5.09,10.89-12.29,10.9a13.55,13.55,0,0,1-7.18-2c-5.17-3.46-4.29-10.54,1.42-13.13,4.76-2.17,9.67-1.71,14.56-.47C1079.69,687.11,1079.68,687.16,1079.68,690.88Z" transform="translate(-546.48 -305.48)"/></svg>